M48
;DRILL file {KiCad 4.0.7} date Tuesday, July 03, 2018 'PMt' 02:38:24 PM
;FORMAT={-:-/ absolute / inch / decimal}
FMAT,2
INCH,TZ
T1C0.024
T2C0.030
T3C0.031
T4C0.039
T5C0.043
T6C0.045
%
G90
G05
M72
T1
X7.075Y-4.665
X7.175Y-4.665
X7.485Y-4.665
X7.585Y-4.665
T2
X6.83Y-4.18
X6.83Y-4.78
X6.93Y-4.18
X6.93Y-4.78
X7.03Y-4.18
X7.03Y-4.78
X7.13Y-4.18
X7.13Y-4.78
X7.23Y-4.18
X7.23Y-4.78
X7.33Y-4.18
X7.33Y-4.78
X7.43Y-4.18
X7.43Y-4.78
X7.53Y-4.18
X7.53Y-4.78
X7.63Y-4.18
X7.63Y-4.78
X7.73Y-4.18
X7.73Y-4.78
X7.83Y-4.18
X7.83Y-4.78
X7.93Y-4.18
X7.93Y-4.78
T3
X7.02Y-4.36
X7.36Y-4.5
X7.42Y-4.36
X7.76Y-4.5
T4
X7.24Y-4.04
X7.34Y-4.04
X7.44Y-4.04
X7.54Y-4.04
T5
X6.58Y-4.34
X6.58Y-4.44
X6.58Y-4.54
X6.58Y-4.64
T6
X8.08Y-4.26
X8.08Y-4.56
X8.18Y-4.26
X8.28Y-4.26
X8.28Y-4.56
T0
M30
